<?xml version="1.0" standalone="no"?>
<!DOCTYPE svg PUBLIC "-//W3C//DTD SVG 20010904//EN"
 "http://www.w3.org/TR/2001/REC-SVG-20010904/DTD/svg10.dtd">
<svg version="1.0" xmlns="http://www.w3.org/2000/svg"
 width="240.000000pt" height="240.000000pt" viewBox="0 0 240.000000 240.000000"
 preserveAspectRatio="xMidYMid meet">
<metadata>
Created by potrace 1.14, written by Peter Selinger 2001-2017
</metadata>
<g transform="translate(0.000000,240.000000) scale(0.100000,-0.100000)"
fill="#000000" stroke="none">
<path d="M1053 2390 c-514 -65 -916 -442 -1029 -965 -23 -110 -23 -350 0 -460
86 -397 341 -708 710 -865 607 -258 1295 16 1561 622 106 241 130 523 65 777
-113 442 -475 782 -932 875 -96 20 -281 28 -375 16z m325 -714 c153 -41 239
-151 249 -321 9 -134 -27 -243 -104 -317 -56 -54 -120 -79 -237 -90 -120 -11
-169 -23 -191 -44 -23 -23 -27 -12 -13 32 19 58 61 81 160 89 167 13 235 49
279 147 20 45 24 69 24 153 -1 116 -16 157 -84 218 -52 47 -122 67 -232 67
l-87 0 16 -44 c13 -36 14 -50 4 -83 -20 -66 -98 -89 -147 -43 -48 45 -27 106
47 138 33 14 28 42 -14 77 -89 75 -208 -22 -184 -151 9 -46 64 -106 135 -145
82 -47 141 -98 157 -135 45 -107 -34 -251 -146 -269 -29 -5 -32 -4 -15 5 40
21 65 72 65 131 0 87 -27 119 -186 218 -87 55 -115 96 -115 164 0 98 50 171
138 203 54 19 408 19 481 0z m-468 -509 c33 -58 -30 -119 -88 -86 -46 25 -42
100 5 117 36 12 64 1 83 -31z"/>
</g>
</svg>
